<?xml version="1.0" encoding="UTF-8"?>
<svg xmlns="http://www.w3.org/2000/svg" xmlns:xlink="http://www.w3.org/1999/xlink" width="30pt" height="30.000001pt" viewBox="0 0 30 30.000001" version="1.2">
<defs>
<clipPath id="clip1">
  <path d="M 2.660156 2.175781 L 27.339844 2.175781 L 27.339844 26.855469 L 2.660156 26.855469 Z M 2.660156 2.175781 "/>
</clipPath>
</defs>
<g id="surface1">
<g clip-path="url(#clip1)" clip-rule="nonzero">
<path style=" stroke:none;fill-rule:nonzero;fill:rgb(100%,100%,100%);fill-opacity:1;" d="M 15 2.382812 C 8.1875 2.382812 2.660156 7.90625 2.660156 14.722656 C 2.660156 20.503906 6.644531 25.339844 12.011719 26.679688 C 11.953125 26.511719 11.914062 26.320312 11.914062 26.082031 L 11.914062 23.972656 C 11.414062 23.972656 10.574219 23.972656 10.363281 23.972656 C 9.519531 23.972656 8.769531 23.609375 8.40625 22.933594 C 8 22.183594 7.933594 21.039062 6.929688 20.335938 C 6.632812 20.101562 6.859375 19.835938 7.203125 19.875 C 7.835938 20.050781 8.359375 20.484375 8.851562 21.128906 C 9.34375 21.773438 9.574219 21.921875 10.492188 21.921875 C 10.9375 21.921875 11.605469 21.894531 12.230469 21.796875 C 12.570312 20.9375 13.152344 20.152344 13.863281 19.777344 C 9.757812 19.355469 7.796875 17.3125 7.796875 14.535156 C 7.796875 13.34375 8.304688 12.1875 9.167969 11.210938 C 8.886719 10.246094 8.527344 8.273438 9.277344 7.523438 C 11.125 7.523438 12.246094 8.722656 12.511719 9.046875 C 13.433594 8.730469 14.445312 8.550781 15.507812 8.550781 C 16.574219 8.550781 17.589844 8.730469 18.511719 9.050781 C 18.777344 8.726562 19.898438 7.523438 21.75 7.523438 C 22.503906 8.277344 22.140625 10.253906 21.855469 11.21875 C 22.714844 12.191406 23.21875 13.34375 23.21875 14.535156 C 23.21875 17.308594 21.261719 19.351562 17.160156 19.777344 C 18.289062 20.367188 19.113281 22.023438 19.113281 23.269531 L 19.113281 26.082031 C 19.113281 26.1875 19.089844 26.265625 19.078125 26.355469 C 23.886719 24.671875 27.339844 20.105469 27.339844 14.722656 C 27.339844 7.90625 21.8125 2.382812 15 2.382812 Z M 15 2.382812 "/>
</g>
</g>
</svg>
