<?xml version="1.0" encoding="UTF-8"?>
<svg xmlns="http://www.w3.org/2000/svg" xmlns:xlink="http://www.w3.org/1999/xlink" width="30pt" height="30.000001pt" viewBox="0 0 30 30.000001" version="1.2">
<defs>
<clipPath id="clip1">
  <path d="M 2.308594 2.078125 L 27.710938 2.078125 L 27.710938 26.753906 L 2.308594 26.753906 Z M 2.308594 2.078125 "/>
</clipPath>
</defs>
<g id="surface1">
<g clip-path="url(#clip1)" clip-rule="nonzero">
<path style=" stroke:none;fill-rule:nonzero;fill:rgb(23.529053%,23.529053%,23.139954%);fill-opacity:1;" d="M 15.011719 2.085938 C 7.996094 2.085938 2.308594 7.722656 2.308594 14.675781 C 2.308594 20.242188 5.949219 24.960938 10.996094 26.625 C 11.628906 26.742188 11.863281 26.351562 11.863281 26.019531 C 11.863281 25.71875 11.851562 24.726562 11.84375 23.675781 C 8.3125 24.4375 7.566406 22.191406 7.566406 22.191406 C 6.988281 20.734375 6.15625 20.347656 6.15625 20.347656 C 5.003906 19.566406 6.242188 19.582031 6.242188 19.582031 C 7.519531 19.671875 8.1875 20.878906 8.1875 20.878906 C 9.320312 22.804688 11.160156 22.25 11.886719 21.925781 C 12 21.113281 12.328125 20.558594 12.691406 20.242188 C 9.871094 19.925781 6.90625 18.84375 6.90625 14.019531 C 6.90625 12.644531 7.402344 11.523438 8.214844 10.640625 C 8.082031 10.324219 7.648438 9.042969 8.335938 7.308594 C 8.335938 7.308594 9.402344 6.96875 11.832031 8.597656 C 12.84375 8.320312 13.929688 8.179688 15.011719 8.175781 C 16.089844 8.179688 17.175781 8.320312 18.191406 8.597656 C 20.617188 6.96875 21.679688 7.308594 21.679688 7.308594 C 22.371094 9.042969 21.9375 10.324219 21.804688 10.640625 C 22.621094 11.523438 23.113281 12.644531 23.113281 14.019531 C 23.113281 18.855469 20.140625 19.921875 17.3125 20.234375 C 17.769531 20.625 18.175781 21.390625 18.175781 22.566406 C 18.175781 24.25 18.160156 25.605469 18.160156 26.019531 C 18.160156 26.355469 18.386719 26.75 19.03125 26.625 C 24.078125 24.957031 27.710938 20.238281 27.710938 14.675781 C 27.710938 7.722656 22.023438 2.085938 15.011719 2.085938 Z M 7.066406 20.023438 C 7.039062 20.085938 6.9375 20.105469 6.847656 20.0625 C 6.753906 20.019531 6.703125 19.9375 6.734375 19.871094 C 6.761719 19.808594 6.859375 19.789062 6.953125 19.832031 C 7.042969 19.875 7.097656 19.960938 7.066406 20.023438 Z M 7.691406 20.574219 C 7.628906 20.632812 7.511719 20.605469 7.429688 20.519531 C 7.347656 20.429688 7.332031 20.3125 7.394531 20.257812 C 7.457031 20.199219 7.570312 20.226562 7.652344 20.3125 C 7.738281 20.402344 7.753906 20.519531 7.691406 20.574219 Z M 8.117188 21.285156 C 8.039062 21.335938 7.914062 21.285156 7.835938 21.175781 C 7.757812 21.0625 7.757812 20.929688 7.835938 20.875 C 7.914062 20.820312 8.039062 20.871094 8.121094 20.980469 C 8.199219 21.09375 8.199219 21.226562 8.117188 21.285156 Z M 8.84375 22.101562 C 8.773438 22.175781 8.625 22.15625 8.515625 22.054688 C 8.40625 21.953125 8.375 21.808594 8.445312 21.730469 C 8.515625 21.65625 8.664062 21.675781 8.773438 21.78125 C 8.882812 21.882812 8.917969 22.027344 8.84375 22.101562 Z M 9.78125 22.378906 C 9.75 22.476562 9.605469 22.523438 9.464844 22.480469 C 9.320312 22.4375 9.226562 22.320312 9.253906 22.222656 C 9.285156 22.121094 9.429688 22.074219 9.574219 22.121094 C 9.714844 22.164062 9.808594 22.277344 9.78125 22.378906 Z M 10.847656 22.496094 C 10.851562 22.601562 10.726562 22.683594 10.578125 22.6875 C 10.425781 22.691406 10.300781 22.605469 10.300781 22.503906 C 10.300781 22.398438 10.421875 22.3125 10.570312 22.3125 C 10.722656 22.308594 10.847656 22.390625 10.847656 22.496094 Z M 11.894531 22.457031 C 11.914062 22.558594 11.808594 22.660156 11.65625 22.6875 C 11.511719 22.714844 11.375 22.652344 11.355469 22.550781 C 11.335938 22.449219 11.441406 22.34375 11.589844 22.316406 C 11.742188 22.292969 11.875 22.351562 11.894531 22.457031 Z M 11.894531 22.457031 "/>
</g>
</g>
</svg>
