<?xml version="1.0" encoding="UTF-8"?>
<svg xmlns="http://www.w3.org/2000/svg" xmlns:xlink="http://www.w3.org/1999/xlink" width="30pt" height="30.000001pt" viewBox="0 0 30 30.000001" version="1.2">
<defs>
<clipPath id="clip1">
  <path d="M 2.660156 2.175781 L 27.339844 2.175781 L 27.339844 26.855469 L 2.660156 26.855469 Z M 2.660156 2.175781 "/>
</clipPath>
</defs>
<g id="surface1">
<g clip-path="url(#clip1)" clip-rule="nonzero">
<path style=" stroke:none;fill-rule:nonzero;fill:rgb(100%,100%,100%);fill-opacity:1;" d="M 24.597656 2.175781 L 5.402344 2.175781 C 3.886719 2.175781 2.660156 3.40625 2.660156 4.917969 L 2.660156 24.113281 C 2.660156 25.628906 3.886719 26.855469 5.402344 26.855469 L 24.597656 26.855469 C 26.113281 26.855469 27.339844 25.628906 27.339844 24.113281 L 27.339844 4.917969 C 27.339844 3.40625 26.113281 2.175781 24.597656 2.175781 Z M 10.886719 21.371094 L 7.429688 21.371094 L 7.429688 11.773438 L 10.886719 11.773438 Z M 9.097656 10.015625 C 8.039062 10.015625 7.332031 9.3125 7.332031 8.371094 C 7.332031 7.429688 8.039062 6.726562 9.214844 6.726562 C 10.269531 6.726562 10.976562 7.429688 10.976562 8.371094 C 10.976562 9.3125 10.273438 10.015625 9.097656 10.015625 Z M 23.226562 21.371094 L 19.878906 21.371094 L 19.878906 16.125 C 19.878906 14.675781 18.984375 14.339844 18.652344 14.339844 C 18.316406 14.339844 17.199219 14.5625 17.199219 16.125 C 17.199219 16.347656 17.199219 21.371094 17.199219 21.371094 L 13.742188 21.371094 L 13.742188 11.773438 L 17.199219 11.773438 L 17.199219 13.113281 C 17.644531 12.332031 18.539062 11.773438 20.210938 11.773438 C 21.886719 11.773438 23.226562 13.113281 23.226562 16.125 Z M 23.226562 21.371094 "/>
</g>
</g>
</svg>
