<?xml version="1.0" encoding="UTF-8"?>
<svg xmlns="http://www.w3.org/2000/svg" xmlns:xlink="http://www.w3.org/1999/xlink" width="30pt" height="30.000001pt" viewBox="0 0 30 30.000001" version="1.2">
<defs>
<clipPath id="clip1">
  <path d="M 2.699219 2.214844 L 27.375 2.214844 L 27.375 26.890625 L 2.699219 26.890625 Z M 2.699219 2.214844 "/>
</clipPath>
</defs>
<g id="surface1">
<g clip-path="url(#clip1)" clip-rule="nonzero">
<path style=" stroke:none;fill-rule:nonzero;fill:rgb(23.529053%,23.529053%,23.139954%);fill-opacity:1;" d="M 24.632812 2.214844 L 5.441406 2.214844 C 3.925781 2.214844 2.699219 3.441406 2.699219 4.957031 L 2.699219 24.148438 C 2.699219 25.664062 3.925781 26.890625 5.441406 26.890625 L 24.632812 26.890625 C 26.148438 26.890625 27.375 25.664062 27.375 24.148438 L 27.375 4.957031 C 27.375 3.441406 26.148438 2.214844 24.632812 2.214844 Z M 10.921875 21.40625 L 7.464844 21.40625 L 7.464844 11.808594 L 10.921875 11.808594 Z M 9.132812 10.050781 C 8.074219 10.050781 7.371094 9.347656 7.371094 8.40625 C 7.371094 7.464844 8.074219 6.761719 9.25 6.761719 C 10.304688 6.761719 11.011719 7.464844 11.011719 8.40625 C 11.011719 9.347656 10.308594 10.050781 9.132812 10.050781 Z M 23.261719 21.40625 L 19.914062 21.40625 L 19.914062 16.160156 C 19.914062 14.710938 19.023438 14.375 18.6875 14.375 C 18.351562 14.375 17.238281 14.601562 17.238281 16.160156 C 17.238281 16.386719 17.238281 21.40625 17.238281 21.40625 L 13.777344 21.40625 L 13.777344 11.808594 L 17.238281 11.808594 L 17.238281 13.148438 C 17.683594 12.367188 18.574219 11.808594 20.25 11.808594 C 21.921875 11.808594 23.261719 13.148438 23.261719 16.160156 Z M 23.261719 21.40625 "/>
</g>
</g>
</svg>
