<?xml version="1.0" encoding="UTF-8"?>
<svg xmlns="http://www.w3.org/2000/svg" xmlns:xlink="http://www.w3.org/1999/xlink" width="30pt" height="30.000001pt" viewBox="0 0 30 30.000001" version="1.2">
<defs>
<clipPath id="clip1">
  <path d="M 2.699219 2.214844 L 27.375 2.214844 L 27.375 26.890625 L 2.699219 26.890625 Z M 2.699219 2.214844 "/>
</clipPath>
</defs>
<g id="surface1">
<g clip-path="url(#clip1)" clip-rule="nonzero">
<path style=" stroke:none;fill-rule:nonzero;fill:rgb(100%,100%,100%);fill-opacity:1;" d="M 25.132812 2.214844 L 4.941406 2.214844 C 3.703125 2.214844 2.699219 3.21875 2.699219 4.457031 L 2.699219 24.648438 C 2.699219 25.886719 3.703125 26.890625 4.941406 26.890625 L 25.132812 26.890625 C 26.371094 26.890625 27.375 25.886719 27.375 24.648438 L 27.375 4.457031 C 27.375 3.21875 26.371094 2.214844 25.132812 2.214844 Z M 23.496094 21.28125 L 16.84375 21.28125 L 16.84375 20.910156 L 18.402344 19.539062 L 18.402344 11.714844 L 14.574219 21.28125 L 13.976562 21.28125 L 9.707031 11.640625 L 9.707031 18.46875 L 11.660156 20.910156 L 11.660156 21.28125 L 6.578125 21.28125 L 6.578125 20.910156 L 8.59375 18.46875 L 8.59375 10.34375 L 6.800781 8.101562 C 6.800781 8.101562 6.800781 7.777344 6.800781 7.828125 L 11.710938 7.828125 L 15.523438 16.074219 L 18.8125 7.828125 L 23.46875 7.828125 L 23.46875 8.101562 L 21.765625 9.535156 L 21.765625 19.539062 L 23.496094 20.910156 Z M 23.496094 21.28125 "/>
</g>
</g>
</svg>
